<?xml version="1.0" encoding="UTF-8" standalone="no"?>
<!-- Generator: Adobe Illustrator 15.1.0, SVG Export Plug-In . SVG Version: 6.00 Build 0)  -->

<svg
   xmlns:dc="http://purl.org/dc/elements/1.1/"
   xmlns:cc="http://creativecommons.org/ns#"
   xmlns:rdf="http://www.w3.org/1999/02/22-rdf-syntax-ns#"
   xmlns:svg="http://www.w3.org/2000/svg"
   xmlns="http://www.w3.org/2000/svg"
   xmlns:sodipodi="http://sodipodi.sourceforge.net/DTD/sodipodi-0.dtd"
   xmlns:inkscape="http://www.inkscape.org/namespaces/inkscape"
   id="Layer_1"
   enable-background="new 0 0 360 360"
   xml:space="preserve"
   viewBox="0 0 199.7 288.004"
   version="1.0"
   y="0px"
   x="0px"
   sodipodi:docname="Lock-Icon.svg"
   width="199.7"
   height="288.004"
   inkscape:version="0.92.4 (f8dce91, 2019-08-02)"><defs
   id="defs80">
	
	
</defs><sodipodi:namedview
   pagecolor="#ffffff"
   bordercolor="#666666"
   borderopacity="1"
   objecttolerance="10"
   gridtolerance="10"
   guidetolerance="10"
   inkscape:pageopacity="0"
   inkscape:pageshadow="2"
   inkscape:window-width="2490"
   inkscape:window-height="1376"
   id="namedview78"
   showgrid="false"
   fit-margin-top="0"
   fit-margin-left="0"
   fit-margin-right="0"
   fit-margin-bottom="0"
   inkscape:zoom="3.3277778"
   inkscape:cx="47.456102"
   inkscape:cy="144.004"
   inkscape:window-x="70"
   inkscape:window-y="27"
   inkscape:window-maximized="1"
   inkscape:current-layer="Layer_1" />
<path
   inkscape:connector-curvature="0"
   id="path71"
   d="M 182.97414,77.79 C 181.67449,54.641 172.75831,35.076 156.95468,20.953 141.82862,7.443 121.55155,0 99.848,0 78.14751,0 57.86746,7.443 42.74332,20.957 26.94069,35.08 18.024508,54.645 16.723883,77.794 6.94988,81.774 0,91.404 0,102.614 v 158.62 c 0,14.73 11.982,26.77 26.62665,26.77 h 146.4467 C 187.719,288.004 199.7,275.96 199.7,261.236 v -158.62 c 0,-11.21 -6.95386,-20.84 -16.72089,-24.82 z M 119.0523,226.85 c 0.7994,4.731 -2.45363,8.605 -7.22822,8.605 H 87.87492 c -4.77751,0 -8.02962,-3.874 -7.23022,-8.605 l 6.30204,-37.277 C 80.44068,185.32 76.1297,177.964 76.1297,169.58 c 0,-13.168 10.61994,-23.843 23.7183,-23.843 13.09936,0 23.71736,10.675 23.71736,23.843 0,8.384 -4.30996,15.74 -10.8141,19.993 l 6.31982,37.27 z M 31.68355,75.84 c 3.73547,-41.816 37.05939,-60.972 68.15953,-60.972 18.07499,0 34.86429,6.108 47.27819,17.201 12.1464,10.854 19.28746,25.874 20.89218,43.771 H 31.68058 Z"
   style="stroke-width:0.99527633" />
<metadata
   id="metadata75"><rdf:RDF><cc:Work><dc:format>image/svg+xml</dc:format><dc:type
         rdf:resource="http://purl.org/dc/dcmitype/StillImage" /><cc:license
         rdf:resource="http://creativecommons.org/publicdomain/zero/1.0/" /><dc:publisher><cc:Agent
           rdf:about="http://openclipart.org/"><dc:title>Openclipart</dc:title></cc:Agent></dc:publisher><dc:title></dc:title></cc:Work><cc:License
       rdf:about="http://creativecommons.org/publicdomain/zero/1.0/"><cc:permits
         rdf:resource="http://creativecommons.org/ns#Reproduction" /><cc:permits
         rdf:resource="http://creativecommons.org/ns#Distribution" /><cc:permits
         rdf:resource="http://creativecommons.org/ns#DerivativeWorks" /></cc:License></rdf:RDF></metadata></svg>